# xmcd
#
# Track frame offsets:
# 150
# 10790
# 25324
# 38164
# 52913
# 67443
# 78360
# 91017
# 102744
# 116184
# 127873
# 139163
# 151610
# 165785
# 179967
# 197006
# 213533
# 225348
# 239000
# 252289
# 263416
# 280856
# 294978
# 307558
#
# Disc length: 4298 seconds
#
#
# Revision: 1
# Processed by: cddbd v1.5.1PL0 Copyright (c) Steve Scherf et al.
# Submitted via: FreeRIP 2.90 
#
DISCID=4210c818
DTITLE=Bread - Bread Collection
DYEAR=1900
DGENRE=
TTITLE0=Dismay Day
TTITLE1=Anyway You Want Me
TTITLE2=It Don't Matter To Me
TTITLE3=Make It With You
TTITLE4=Look What You've Done
TTITLE5=Let Your Love Go
TTITLE6=Too Much Love
TTITLE7=If
TTITLE8=He's A Good Lad
TTITLE9=Mother Freedom
TTITLE10=Baby I'm A Want You
TTITLE11=Down On My Knees
TTITLE12=Everything I Own
TTITLE13=Diary
TTITLE14=The Guitar Man
TTITLE15=Aubrey
TTITLE16=Sweet Surrender
TTITLE17=She's The Only One
TTITLE18=Lost Without Your Love
TTITLE19=Soap
TTITLE20=Right Here Inside My Heart
TTITLE21=Never Let Her Go
TTITLE22=Goodbye Girl
TTITLE23=Belonging
EXTD=
EXTT0=
EXTT1=
EXTT2=
EXTT3=
EXTT4=
EXTT5=
EXTT6=
EXTT7=
EXTT8=
EXTT9=
EXTT10=
EXTT11=
EXTT12=
EXTT13=
EXTT14=
EXTT15=
EXTT16=
EXTT17=
EXTT18=
EXTT19=
EXTT20=
EXTT21=
EXTT22=
EXTT23=
PLAYORDER=
